{
  "accessors": [
    {
      "bufferView": 2,
      "componentType": 5126,
      "count": 274,
      "max": [
        500.0001220703125,
        1032.00732421875,
        405.77584838867188
      ],
      "min": [
        -699.9998779296875,
        -1000.0000610351562,
        0
      ],
      "type": "VEC3"
    },
    {
      "bufferView": 2,
      "byteOffset": 3288,
      "componentType": 5126,
      "count": 274,
      "max": [
        1,
        1,
        1
      ],
      "min": [
        -1,
        -1,
        -1
      ],
      "type": "VEC3"
    },
    {
      "bufferView": 3,
      "componentType": 5126,
      "count": 274,
      "max": [
        1,
        2.6282523890586162e-07,
        0,
        1
      ],
      "min": [
        0,
        0,
        0,
        1
      ],
      "type": "VEC4"
    },
    {
      "bufferView": 1,
      "componentType": 5126,
      "count": 274,
      "max": [
        0.99640166759490967,
        0.99950003623962402
      ],
      "min": [
        0.00050000002374872565,
        0.00050000002374872565
      ],
      "type": "VEC2"
    },
    {
      "bufferView": 1,
      "byteOffset": 2192,
      "componentType": 5126,
      "count": 274,
      "max": [
        1.145655632019043,
        2.1756885051727295
      ],
      "min": [
        -0.14565563201904297,
        -1.1756885051727295
      ],
      "type": "VEC2"
    },
    {
      "bufferView": 0,
      "componentType": 5125,
      "count": 600,
      "max": [
        273
      ],
      "min": [
        0
      ],
      "type": "SCALAR"
    },
    {
      "bufferView": 2,
      "byteOffset": 6576,
      "componentType": 5126,
      "count": 204,
      "max": [
        500,
        1032.00732421875,
        332.07476806640625
      ],
      "min": [
        -699.9998779296875,
        -1000.0001831054688,
        0
      ],
      "type": "VEC3"
    },
    {
      "bufferView": 2,
      "byteOffset": 9024,
      "componentType": 5126,
      "count": 204,
      "max": [
        1,
        1,
        1
      ],
      "min": [
        -1,
        -1,
        -1
      ],
      "type": "VEC3"
    },
    {
      "bufferView": 3,
      "byteOffset": 4384,
      "componentType": 5126,
      "count": 204,
      "max": [
        1,
        1,
        1,
        1
      ],
      "min": [
        -1,
        -1,
        -1,
        1
      ],
      "type": "VEC4"
    },
    {
      "bufferView": 1,
      "byteOffset": 4384,
      "componentType": 5126,
      "count": 204,
      "max": [
        0.98858171701431274,
        0.99950003623962402
      ],
      "min": [
        0.00050000002374872565,
        0.00050000002374872565
      ],
      "type": "VEC2"
    },
    {
      "bufferView": 1,
      "byteOffset": 6016,
      "componentType": 5126,
      "count": 204,
      "max": [
        10.000015258789062,
        491.31060791015625
      ],
      "min": [
        -10,
        -150
      ],
      "type": "VEC2"
    },
    {
      "bufferView": 0,
      "byteOffset": 2400,
      "componentType": 5125,
      "count": 324,
      "max": [
        203
      ],
      "min": [
        0
      ],
      "type": "SCALAR"
    },
    {
      "bufferView": 2,
      "byteOffset": 11472,
      "componentType": 5126,
      "count": 24,
      "max": [
        10.00001049041748,
        399.999755859375,
        270
      ],
      "min": [
        -10,
        -150,
        0
      ],
      "type": "VEC3"
    },
    {
      "bufferView": 2,
      "byteOffset": 11760,
      "componentType": 5126,
      "count": 24,
      "max": [
        1,
        1,
        1
      ],
      "min": [
        -1,
        -1,
        -1
      ],
      "type": "VEC3"
    },
    {
      "bufferView": 3,
      "byteOffset": 7648,
      "componentType": 5126,
      "count": 24,
      "max": [
        1,
        1,
        0,
        1
      ],
      "min": [
        -1,
        -1,
        0,
        1
      ],
      "type": "VEC4"
    },
    {
      "bufferView": 1,
      "byteOffset": 7648,
      "componentType": 5126,
      "count": 24,
      "max": [
        1,
        1
      ],
      "min": [
        0,
        0
      ],
      "type": "VEC2"
    },
    {
      "bufferView": 0,
      "byteOffset": 3696,
      "componentType": 5125,
      "count": 36,
      "max": [
        23
      ],
      "min": [
        0
      ],
      "type": "SCALAR"
    },
    {
      "bufferView": 2,
      "byteOffset": 12048,
      "componentType": 5126,
      "count": 11200,
      "max": [
        328.75906372070312,
        -762.954345703125,
        135.02801513671875
      ],
      "min": [
        -227.00003051757812,
        -1611.5731201171875,
        -135.02780151367188
      ],
      "type": "VEC3"
    },
    {
      "bufferView": 2,
      "byteOffset": 146448,
      "componentType": 5126,
      "count": 11200,
      "max": [
        1,
        1,
        1
      ],
      "min": [
        -1,
        -1,
        -1
      ],
      "type": "VEC3"
    },
    {
      "bufferView": 3,
      "byteOffset": 8032,
      "componentType": 5126,
      "count": 11200,
      "max": [
        1,
        1,
        3.0517578125e-05,
        1
      ],
      "min": [
        -1,
        -1,
        -3.0517578125e-05,
        -1
      ],
      "type": "VEC4"
    },
    {
      "bufferView": 1,
      "byteOffset": 7840,
      "componentType": 5126,
      "count": 11200,
      "max": [
        0.99950003623962402,
        0.99865561723709106
      ],
      "min": [
        0.00050000002374872565,
        0.00050000002374872565
      ],
      "type": "VEC2"
    },
    {
      "bufferView": 1,
      "byteOffset": 97440,
      "componentType": 5126,
      "count": 11200,
      "max": [
        21.302215576171875,
        1
      ],
      "min": [
        -20.302219390869141,
        -3.814697265625e-06
      ],
      "type": "VEC2"
    },
    {
      "bufferView": 0,
      "byteOffset": 3840,
      "componentType": 5125,
      "count": 16800,
      "max": [
        11199
      ],
      "min": [
        0
      ],
      "type": "SCALAR"
    },
    {
      "bufferView": 2,
      "byteOffset": 280848,
      "componentType": 5126,
      "count": 6870,
      "max": [
        959.6334228515625,
        -102.10394287109375,
        10
      ],
      "min": [
        -59.6334228515625,
        -1625.6883544921875,
        -1.3067648296782863e-07
      ],
      "type": "VEC3"
    },
    {
      "bufferView": 2,
      "byteOffset": 363288,
      "componentType": 5126,
      "count": 6870,
      "max": [
        0.99331116676330566,
        0.98331540822982788,
        0.997089684009552
      ],
      "min": [
        -0.99331116676330566,
        -0.98331117630004883,
        -0.997089684009552
      ],
      "type": "VEC3"
    },
    {
      "bufferView": 3,
      "byteOffset": 187232,
      "componentType": 5126,
      "count": 6870,
      "max": [
        0.386283278465271,
        0.99065226316452026,
        0.99613392353057861,
        1
      ],
      "min": [
        -0.99887335300445557,
        -0.99065285921096802,
        -0.99612903594970703,
        1
      ],
      "type": "VEC4"
    },
    {
      "bufferView": 1,
      "byteOffset": 187040,
      "componentType": 5126,
      "count": 6870,
      "max": [
        0.9966130256652832,
        0.99950003623962402
      ],
      "min": [
        0.00050000002374872565,
        0.00050000002374872565
      ],
      "type": "VEC2"
    },
    {
      "bufferView": 0,
      "byteOffset": 71040,
      "componentType": 5125,
      "count": 21408,
      "max": [
        6869
      ],
      "min": [
        0
      ],
      "type": "SCALAR"
    }
  ],
  "asset": {
    "extras": {
      "author": "Marcin Lubecki (https://sketchfab.com/Lubus)",
      "license": "SKETCHFAB Standard (https://sketchfab.com/licenses)",
      "source": "https://sketchfab.com/models/2015c91dca7d4b98955357622f0e80bc",
      "title": "Black & White VR Gallery for Product Showcase 4K"
    },
    "generator": "Sketchfab-3.34.8",
    "version": "2.0"
  },
  "bufferViews": [
    {
      "buffer": 0,
      "byteLength": 156672,
      "byteOffset": 0,
      "name": "floatBufferViews",
      "target": 34963
    },
    {
      "buffer": 0,
      "byteLength": 242000,
      "byteOffset": 156672,
      "byteStride": 8,
      "name": "floatBufferViews",
      "target": 34962
    },
    {
      "buffer": 0,
      "byteLength": 445728,
      "byteOffset": 398672,
      "byteStride": 12,
      "name": "floatBufferViews",
      "target": 34962
    },
    {
      "buffer": 0,
      "byteLength": 297152,
      "byteOffset": 844400,
      "byteStride": 16,
      "name": "floatBufferViews",
      "target": 34962
    }
  ],
  "buffers": [
    {
      "byteLength": 1141552,
      "uri": "scene.bin"
    }
  ],
  "extensionsUsed": [
    "KHR_materials_unlit"
  ],
  "images": [
    {
      "uri": "textures/02_-_Default_baseColor.jpeg"
    },
    {
      "uri": "textures/03_-_Default_baseColor.jpeg"
    },
    {
      "uri": "textures/wood_baseColor.jpeg"
    },
    {
      "uri": "textures/01_-_Default_baseColor.jpeg"
    }
  ],
  "materials": [
    {
      "doubleSided": false,
      "emissiveFactor": [
        0,
        0,
        0
      ],
      "name": "02_-_Default",
      "pbrMetallicRoughness": {
        "baseColorFactor": [
          1,
          1,
          1,
          1
        ],
        "baseColorTexture": {
          "index": 0,
          "texCoord": 0
        },
        "metallicFactor": 0,
        "roughnessFactor": 1
      }
    },
    {
      "doubleSided": false,
      "emissiveFactor": [
        0,
        0,
        0
      ],
      "extensions": {
        "KHR_materials_unlit": {}
      },
      "name": "01_-_Default",
      "pbrMetallicRoughness": {
        "baseColorFactor": [
          1,
          1,
          1,
          1
        ],
        "baseColorTexture": {
          "index": 3,
          "texCoord": 0
        },
        "metallicFactor": 0,
        "roughnessFactor": 1
      }
    },
    {
      "doubleSided": true,
      "extensions": {
        "KHR_materials_unlit": {}
      },
      "name": "vray_Walls",
      "pbrMetallicRoughness": {
        "baseColorFactor": [
          0,
          0,
          0,
          1
        ],
        "metallicFactor": 0,
        "roughnessFactor": 1
      }
    },
    {
      "doubleSided": true,
      "emissiveFactor": [
        0,
        0,
        0
      ],
      "extensions": {
        "KHR_materials_unlit": {}
      },
      "name": "wood",
      "pbrMetallicRoughness": {
        "baseColorFactor": [
          1,
          1,
          1,
          1
        ],
        "baseColorTexture": {
          "index": 2,
          "texCoord": 0
        },
        "metallicFactor": 0,
        "roughnessFactor": 1
      }
    },
    {
      "doubleSided": true,
      "emissiveFactor": [
        0,
        0,
        0
      ],
      "extensions": {
        "KHR_materials_unlit": {}
      },
      "name": "03_-_Default",
      "pbrMetallicRoughness": {
        "baseColorFactor": [
          1,
          1,
          1,
          1
        ],
        "baseColorTexture": {
          "index": 1,
          "texCoord": 0
        },
        "metallicFactor": 0,
        "roughnessFactor": 1
      }
    }
  ],
  "meshes": [
    {
      "name": "floor_02 - Default_0",
      "primitives": [
        {
          "attributes": {
            "NORMAL": 1,
            "POSITION": 0,
            "TANGENT": 2,
            "TEXCOORD_0": 3,
            "TEXCOORD_1": 4
          },
          "indices": 5,
          "material": 0,
          "mode": 4
        }
      ]
    },
    {
      "name": "walls_01 - Default_0",
      "primitives": [
        {
          "attributes": {
            "NORMAL": 7,
            "POSITION": 6,
            "TANGENT": 8,
            "TEXCOORD_0": 9,
            "TEXCOORD_1": 10
          },
          "indices": 11,
          "material": 1,
          "mode": 4
        }
      ]
    },
    {
      "name": "Box005_vray Walls_0",
      "primitives": [
        {
          "attributes": {
            "NORMAL": 13,
            "POSITION": 12,
            "TANGENT": 14,
            "TEXCOORD_0": 15
          },
          "indices": 16,
          "material": 2,
          "mode": 4
        }
      ]
    },
    {
      "name": "wood_wood_0",
      "primitives": [
        {
          "attributes": {
            "NORMAL": 18,
            "POSITION": 17,
            "TANGENT": 19,
            "TEXCOORD_0": 20,
            "TEXCOORD_1": 21
          },
          "indices": 22,
          "material": 3,
          "mode": 4
        }
      ]
    },
    {
      "name": "window_03 - Default_0",
      "primitives": [
        {
          "attributes": {
            "NORMAL": 24,
            "POSITION": 23,
            "TANGENT": 25,
            "TEXCOORD_0": 26
          },
          "indices": 27,
          "material": 4,
          "mode": 4
        }
      ]
    }
  ],
  "nodes": [
    {
      "children": [
        1
      ],
      "name": "RootNode (gltf orientation matrix)",
      "rotation": [
        -0.70710678118654746,
        -0,
        -0,
        0.70710678118654757
      ]
    },
    {
      "children": [
        2
      ],
      "name": "RootNode (model correction matrix)"
    },
    {
      "children": [
        3
      ],
      "matrix": [
        1,
        0,
        0,
        0,
        0,
        0,
        1,
        0,
        0,
        -1,
        0,
        0,
        0,
        0,
        0,
        1
      ],
      "name": "76e6893775c04e078e6965503cc97df8.fbx"
    },
    {
      "children": [
        4,
        7,
        10,
        13,
        15
      ],
      "name": "RootNode"
    },
    {
      "children": [
        5
      ],
      "matrix": [
        1,
        0,
        0,
        0,
        0,
        2.2204460492503131e-16,
        -1,
        0,
        0,
        1,
        2.2204460492503131e-16,
        0,
        0,
        4.9999998736893758e-05,
        0,
        1
      ],
      "name": "floor"
    },
    {
      "children": [
        6
      ],
      "matrix": [
        1,
        0,
        -0,
        0,
        0,
        1,
        0,
        0,
        0,
        0,
        1,
        0,
        0,
        0,
        -4.9999998736893758e-05,
        1
      ],
      "name": ""
    },
    {
      "mesh": 0,
      "name": "floor_02 - Default_0"
    },
    {
      "children": [
        8
      ],
      "matrix": [
        1,
        0,
        0,
        0,
        0,
        2.2204460492503131e-16,
        -1,
        0,
        0,
        1,
        2.2204460492503131e-16,
        0,
        0,
        150,
        0,
        1
      ],
      "name": "walls"
    },
    {
      "children": [
        9
      ],
      "matrix": [
        1,
        0,
        -0,
        0,
        0,
        1,
        0,
        0,
        0,
        0,
        1,
        0,
        0,
        0,
        -150,
        1
      ],
      "name": ""
    },
    {
      "mesh": 1,
      "name": "walls_01 - Default_0"
    },
    {
      "children": [
        11
      ],
      "matrix": [
        4.3711387731626417e-08,
        -5.5511151231257827e-17,
        -0.99999999999999933,
        0,
        -0.99999999999999933,
        0,
        -4.371138789815987e-08,
        0,
        5.5511151231257827e-17,
        1.0000000000000002,
        -2.2204460492503131e-16,
        0,
        -300,
        135,
        -388.5296630859375,
        1
      ],
      "name": "Box005"
    },
    {
      "children": [
        12
      ],
      "matrix": [
        1,
        0,
        -0,
        0,
        0,
        1,
        0,
        0,
        0,
        0,
        1,
        0,
        0,
        0,
        -135,
        1
      ],
      "name": ""
    },
    {
      "mesh": 2,
      "name": "Box005_vray Walls_0"
    },
    {
      "children": [
        14
      ],
      "matrix": [
        1,
        0,
        0,
        0,
        0,
        2.2204460492503131e-16,
        -1,
        0,
        0,
        1,
        2.2204460492503131e-16,
        0,
        -473.00015258789062,
        135.027587890625,
        -1167.2427978515625,
        1
      ],
      "name": "wood"
    },
    {
      "mesh": 3,
      "name": "wood_wood_0"
    },
    {
      "children": [
        16
      ],
      "matrix": [
        1,
        0,
        0,
        0,
        0,
        2.2204460492503131e-16,
        -1,
        0,
        0,
        1,
        2.2204460492503131e-16,
        0,
        -549.9998779296875,
        396.01217651367188,
        -675.6883544921875,
        1
      ],
      "name": "window"
    },
    {
      "mesh": 4,
      "name": "window_03 - Default_0"
    }
  ],
  "samplers": [
    {
      "magFilter": 9728,
      "minFilter": 9728,
      "wrapS": 10497,
      "wrapT": 10497
    },
    {
      "magFilter": 9729,
      "minFilter": 9987,
      "wrapS": 10497,
      "wrapT": 10497
    }
  ],
  "scene": 0,
  "scenes": [
    {
      "name": "OSG_Scene",
      "nodes": [
        0
      ]
    }
  ],
  "textures": [
    {
      "sampler": 0,
      "source": 0
    },
    {
      "sampler": 0,
      "source": 1
    },
    {
      "sampler": 1,
      "source": 2
    },
    {
      "sampler": 0,
      "source": 3
    }
  ]
}

