{
  "accessors": [
    {
      "bufferView": 1,
      "componentType": 5126,
      "count": 65532,
      "max": [
        755.8653564453125,
        779.23284912109375,
        2123.72314453125
      ],
      "min": [
        0,
        5.7310791015625,
        0
      ],
      "type": "VEC3"
    },
    {
      "bufferView": 1,
      "byteOffset": 786384,
      "componentType": 5126,
      "count": 65532,
      "max": [
        0.99999147653579712,
        0.99999904632568359,
        0.99999994039535522
      ],
      "min": [
        -0.99999934434890747,
        -0.99999839067459106,
        -1
      ],
      "type": "VEC3"
    },
    {
      "bufferView": 0,
      "componentType": 5125,
      "count": 313197,
      "max": [
        65531
      ],
      "min": [
        0
      ],
      "type": "SCALAR"
    },
    {
      "bufferView": 1,
      "byteOffset": 1572768,
      "componentType": 5126,
      "count": 65532,
      "max": [
        755.8653564453125,
        779.44482421875,
        2134.790283203125
      ],
      "min": [
        0.04022216796875,
        0,
        0.044214040040969849
      ],
      "type": "VEC3"
    },
    {
      "bufferView": 1,
      "byteOffset": 2359152,
      "componentType": 5126,
      "count": 65532,
      "max": [
        0.99999862909317017,
        0.99999457597732544,
        0.99999696016311646
      ],
      "min": [
        -0.99997913837432861,
        -0.99999916553497314,
        -0.99999988079071045
      ],
      "type": "VEC3"
    },
    {
      "bufferView": 0,
      "byteOffset": 1252788,
      "componentType": 5125,
      "count": 321444,
      "max": [
        65531
      ],
      "min": [
        0
      ],
      "type": "SCALAR"
    },
    {
      "bufferView": 1,
      "byteOffset": 3145536,
      "componentType": 5126,
      "count": 57926,
      "max": [
        755.8653564453125,
        779.2989501953125,
        2134.790283203125
      ],
      "min": [
        0.454681396484375,
        7.055694580078125,
        0
      ],
      "type": "VEC3"
    },
    {
      "bufferView": 1,
      "byteOffset": 3840648,
      "componentType": 5126,
      "count": 57926,
      "max": [
        0.99999630451202393,
        0.99999904632568359,
        0.99999970197677612
      ],
      "min": [
        -0.99999690055847168,
        -0.99999958276748657,
        -0.99999988079071045
      ],
      "type": "VEC3"
    },
    {
      "bufferView": 0,
      "byteOffset": 2538564,
      "componentType": 5125,
      "count": 191616,
      "max": [
        57925
      ],
      "min": [
        0
      ],
      "type": "SCALAR"
    }
  ],
  "asset": {
    "extras": {
      "author": "SMK – National Gallery of Denmark (https://sketchfab.com/smkmuseum)",
      "license": "CC0-1.0 (http://creativecommons.org/publicdomain/zero/1.0/)",
      "source": "https://sketchfab.com/3d-models/doryphoros-the-spear-bearer-2b213f98afa742a5880af130b4d4eddc",
      "title": "Doryphoros (The Spear Bearer)"
    },
    "generator": "Sketchfab-7.80.0",
    "version": "2.0"
  },
  "bufferViews": [
    {
      "buffer": 0,
      "byteLength": 3305028,
      "byteOffset": 0,
      "name": "floatBufferViews",
      "target": 34963
    },
    {
      "buffer": 0,
      "byteLength": 4535760,
      "byteOffset": 3305028,
      "byteStride": 12,
      "name": "floatBufferViews",
      "target": 34962
    }
  ],
  "buffers": [
    {
      "byteLength": 7840788,
      "uri": "scene.bin"
    }
  ],
  "materials": [
    {
      "doubleSided": true,
      "emissiveFactor": [
        0,
        0,
        0
      ],
      "name": "default",
      "pbrMetallicRoughness": {
        "baseColorFactor": [
          1,
          1,
          1,
          1
        ],
        "metallicFactor": 0,
        "roughnessFactor": 0.59999999999999998
      }
    }
  ],
  "meshes": [
    {
      "primitives": [
        {
          "attributes": {
            "NORMAL": 1,
            "POSITION": 0
          },
          "indices": 2,
          "material": 0,
          "mode": 4
        }
      ]
    },
    {
      "primitives": [
        {
          "attributes": {
            "NORMAL": 4,
            "POSITION": 3
          },
          "indices": 5,
          "material": 0,
          "mode": 4
        }
      ]
    },
    {
      "primitives": [
        {
          "attributes": {
            "NORMAL": 7,
            "POSITION": 6
          },
          "indices": 8,
          "material": 0,
          "mode": 4
        }
      ]
    }
  ],
  "nodes": [
    {
      "children": [
        1
      ],
      "name": "RootNode (gltf orientation matrix)",
      "rotation": [
        -0.70710678118654746,
        -0,
        -0,
        0.70710678118654757
      ]
    },
    {
      "children": [
        2
      ],
      "name": "RootNode (model correction matrix)"
    },
    {
      "children": [
        3
      ],
      "matrix": [
        1,
        0,
        0,
        0,
        0,
        1,
        0,
        0,
        0,
        0,
        1,
        0,
        -356.11358642578125,
        -442.9500732421875,
        -0.47696265578269958,
        1
      ],
      "name": "The_Doryphoros_SMK_KAS11_10pct.obj.cleaner.gles"
    },
    {
      "children": [
        4,
        5,
        6
      ],
      "name": ""
    },
    {
      "mesh": 0,
      "name": ""
    },
    {
      "mesh": 1,
      "name": ""
    },
    {
      "mesh": 2,
      "name": ""
    }
  ],
  "scene": 0,
  "scenes": [
    {
      "name": "OSG_Scene",
      "nodes": [
        0
      ]
    }
  ]
}

