{
    "asset" : {
        "generator" : "Khronos glTF Blender I/O v1.6.16",
        "version" : "2.0"
    },
    "scene" : 0,
    "scenes" : [
        {
            "name" : "Scene",
            "nodes" : [
                0
            ]
        }
    ],
    "nodes" : [
        {
            "mesh" : 0,
            "name" : "picture_frame_2",
            "rotation" : [
                0,
                0,
                -0.7071068286895752,
                0.7071068286895752
            ],
            "translation" : [
                -12.5,
                0,
                0
            ]
        }
    ],
    "materials" : [
        {
            "doubleSided" : true,
            "name" : "picture_frames",
            "pbrMetallicRoughness" : {}
        }
    ],
    "meshes" : [
        {
            "name" : "picture_frame_2",
            "primitives" : [
                {
                    "attributes" : {
                        "POSITION" : 0,
                        "NORMAL" : 1,
                        "TEXCOORD_0" : 2
                    },
                    "indices" : 3,
                    "material" : 0
                }
            ]
        }
    ],
    "accessors" : [
        {
            "bufferView" : 0,
            "componentType" : 5126,
            "count" : 786,
            "max" : [
                10.000003814697266,
                25.000011444091797,
                1.1299465894699097
            ],
            "min" : [
                -10.000006675720215,
                0,
                -0.07005400955677032
            ],
            "type" : "VEC3"
        },
        {
            "bufferView" : 1,
            "componentType" : 5126,
            "count" : 786,
            "type" : "VEC3"
        },
        {
            "bufferView" : 2,
            "componentType" : 5126,
            "count" : 786,
            "type" : "VEC2"
        },
        {
            "bufferView" : 3,
            "componentType" : 5123,
            "count" : 1188,
            "type" : "SCALAR"
        }
    ],
    "bufferViews" : [
        {
            "buffer" : 0,
            "byteLength" : 9432,
            "byteOffset" : 0
        },
        {
            "buffer" : 0,
            "byteLength" : 9432,
            "byteOffset" : 9432
        },
        {
            "buffer" : 0,
            "byteLength" : 6288,
            "byteOffset" : 18864
        },
        {
            "buffer" : 0,
            "byteLength" : 2376,
            "byteOffset" : 25152
        }
    ],
    "buffers" : [
        {
            "byteLength" : 27528,
            "uri" : "data:application/octet-stream;base64,"
        }
    ]
}
