{
    "asset" : {
        "generator" : "Khronos glTF Blender I/O v1.6.16",
        "version" : "2.0"
    },
    "scene" : 0,
    "scenes" : [
        {
            "name" : "Scene",
            "nodes" : [
                0
            ]
        }
    ],
    "nodes" : [
        {
            "mesh" : 0,
            "name" : "70*100*6.001",
            "rotation" : [
                0,
                0,
                0.9238793849945068,
                -0.38268372416496277
            ],
            "translation" : [
                -0.193634033203125,
                -0.35199737548828125,
                -1.2340638637542725
            ]
        }
    ],
    "materials" : [
        {
            "doubleSided" : true,
            "name" : "framewhite.001",
            "pbrMetallicRoughness" : {
                "baseColorFactor" : [
                    0.9843137860298157,
                    0.9803922176361084,
                    0.9803922176361084,
                    1
                ],
                "metallicFactor" : 0,
                "roughnessFactor" : 0.5527864098548889
            }
        },
        {
            "doubleSided" : true,
            "name" : "frame2.001",
            "pbrMetallicRoughness" : {
                "baseColorFactor" : [
                    0.9411765336990356,
                    1,
                    1,
                    1
                ],
                "metallicFactor" : 0,
                "roughnessFactor" : 0.5527864098548889
            }
        },
        {
            "doubleSided" : true,
            "name" : "c6.001",
            "pbrMetallicRoughness" : {
                "metallicFactor" : 0,
                "roughnessFactor" : 0.5527864098548889
            }
        }
    ],
    "meshes" : [
        {
            "name" : "Mesh.001",
            "primitives" : [
                {
                    "attributes" : {
                        "POSITION" : 0,
                        "NORMAL" : 1,
                        "TEXCOORD_0" : 2
                    },
                    "indices" : 3,
                    "material" : 0
                },
                {
                    "attributes" : {
                        "POSITION" : 4,
                        "NORMAL" : 5,
                        "TEXCOORD_0" : 6
                    },
                    "indices" : 7,
                    "material" : 1
                },
                {
                    "attributes" : {
                        "POSITION" : 8,
                        "NORMAL" : 9,
                        "TEXCOORD_0" : 10
                    },
                    "indices" : 11,
                    "material" : 2
                }
            ]
        }
    ],
    "accessors" : [
        {
            "bufferView" : 0,
            "componentType" : 5126,
            "count" : 1482,
            "max" : [
                59.75206756591797,
                60.1225471496582,
                2.984795093536377
            ],
            "min" : [
                -60.122520446777344,
                -59.75205612182617,
                -1.0870333909988403
            ],
            "type" : "VEC3"
        },
        {
            "bufferView" : 1,
            "componentType" : 5126,
            "count" : 1482,
            "type" : "VEC3"
        },
        {
            "bufferView" : 2,
            "componentType" : 5126,
            "count" : 1482,
            "type" : "VEC2"
        },
        {
            "bufferView" : 3,
            "componentType" : 5123,
            "count" : 6840,
            "type" : "SCALAR"
        },
        {
            "bufferView" : 4,
            "componentType" : 5126,
            "count" : 86,
            "max" : [
                58.36085510253906,
                58.7315788269043,
                0.22494494915008545
            ],
            "min" : [
                -58.7315673828125,
                -58.3608512878418,
                -0.45738518238067627
            ],
            "type" : "VEC3"
        },
        {
            "bufferView" : 5,
            "componentType" : 5126,
            "count" : 86,
            "type" : "VEC3"
        },
        {
            "bufferView" : 6,
            "componentType" : 5126,
            "count" : 86,
            "type" : "VEC2"
        },
        {
            "bufferView" : 7,
            "componentType" : 5123,
            "count" : 90,
            "type" : "SCALAR"
        },
        {
            "bufferView" : 8,
            "componentType" : 5126,
            "count" : 6,
            "max" : [
                52.84855651855469,
                53.21780776977539,
                -0.27516305446624756
            ],
            "min" : [
                -53.21772003173828,
                -52.848567962646484,
                -0.27731072902679443
            ],
            "type" : "VEC3"
        },
        {
            "bufferView" : 9,
            "componentType" : 5126,
            "count" : 6,
            "type" : "VEC3"
        },
        {
            "bufferView" : 10,
            "componentType" : 5126,
            "count" : 6,
            "type" : "VEC2"
        },
        {
            "bufferView" : 11,
            "componentType" : 5123,
            "count" : 6,
            "type" : "SCALAR"
        }
    ],
    "bufferViews" : [
        {
            "buffer" : 0,
            "byteLength" : 17784,
            "byteOffset" : 0
        },
        {
            "buffer" : 0,
            "byteLength" : 17784,
            "byteOffset" : 17784
        },
        {
            "buffer" : 0,
            "byteLength" : 11856,
            "byteOffset" : 35568
        },
        {
            "buffer" : 0,
            "byteLength" : 13680,
            "byteOffset" : 47424
        },
        {
            "buffer" : 0,
            "byteLength" : 1032,
            "byteOffset" : 61104
        },
        {
            "buffer" : 0,
            "byteLength" : 1032,
            "byteOffset" : 62136
        },
        {
            "buffer" : 0,
            "byteLength" : 688,
            "byteOffset" : 63168
        },
        {
            "buffer" : 0,
            "byteLength" : 180,
            "byteOffset" : 63856
        },
        {
            "buffer" : 0,
            "byteLength" : 72,
            "byteOffset" : 64036
        },
        {
            "buffer" : 0,
            "byteLength" : 72,
            "byteOffset" : 64108
        },
        {
            "buffer" : 0,
            "byteLength" : 48,
            "byteOffset" : 64180
        },
        {
            "buffer" : 0,
            "byteLength" : 12,
            "byteOffset" : 64228
        }
    ],
    "buffers" : [
        {
            "byteLength" : 64240,
            "uri" : "data:application/octet-stream;base64,"
        }
    ]
}
